<svg xmlns="http://www.w3.org/2000/svg" width="1200" height="1200" viewBox="0 0 1200 1200">
  <defs>
    <style>
      .cls-1 {
        fill: #fff;
        fill-rule: evenodd;
      }
    </style>
  </defs>
  <path id="Color_Fill_1" data-name="Color Fill 1" class="cls-1" d="M673,234h3c1.7,11.127,11.393,16.751,14,26,2.283,8.1-5.468,9.045-7,13-1.614,4.167.414,13.276,1,16v19c1.668,5.733,1.949,15.4,2,24a6.1,6.1,0,0,0-2,2c-4.724-1.726-9.482-3.487-15-4v3c15.7,3.32,32.753,19.782,45,28,5.14,3.449,11.628,4.928,14,11h1c0.99,1.01-.985.988-1,1-1.18.8-1.681,0.773-4,1-7.172-9.735-33.786-15.112-47-20-15.318-5.666-32.815-11.706-50-17-14.407-4.438-42.5-1.828-54,2l-18,3c-16.151,6.043-34.9,12.986-51,19l-7,1c-11.26,4.72-22.347,13.166-34,17v-1c-0.752-1.073-.6-0.946-1-3,8.593-5.25,16.415-12.672,25-18,31.209-19.37,77.053-32.141,125-34v-3c-9.49-.546-19.333-6.846-29-4-14.026,4.129-28.707,6.829-42,12-10.439,4.061-23.379,11.111-37,12l-1-2c6.135-3.585,33.24-17.708,34-24-2.925-2.122-3.608-5.358-7-7-1.545-.707-0.135-0.129-3,0-0.887,3.7-1.54,4.8-5,6-1.667-1.938-1.439-1.668-5-2-1.1,3.416-3.273,5.176-5,8h-3q2-14.5,4-29c-1.749-6.193-12.394-13.942-16-21-1.754.631-.971,0.193-2,1-4.027,4.279-2.691,9.513-5,16-4.18,11.742-10.7,24.045-16,35h-1v-1c-1.049-1.549-1.031-4.085-1-7,4.467-6.948,3.265-16.078,6-25,4.581-14.943,10.472-28.1,20-38h9c6.447,6.5,12.98,11.962,18,20,3.5,5.61,3.468,13.4,11,15,2.556-3.443,6.032-4.866,12-5,3.318,5.136,18.346,21.009,24,23v-1c2.18-3.467,4.991-35.518,5-42a52.811,52.811,0,0,1-9-7q-0.5-7-1-14a15.7,15.7,0,0,1,5-1c2.347,1.544,4.281.586,7,0v-2c3.238-4.854-.544-11.792-1-17,19.112-11.229,24.213-29.014,24-60a14.124,14.124,0,0,1,4-1c4.288,5.377,16.967,6.722,26,7,1.285,1.834,1.968,1.712,3,4h-1c-1.568,1.041-3.475.242-6,1-2.838.852-6.691,4.386-9,5-4.049,1.077-7.757-1.844-13-2-1.158,3.366-1.068,9.15-1,14,2.9,4.4,2.357,11.637,5,16,3.918,6.468,12.9,10.5,14,19-1.96,2.981-1.129,11.279-1,16,2.542,1.372,3.5,1.917,8,2,1.9-.933,1.169-0.379,4,0v16c-2.7,1.312-6.551,2.158-8,5-1.494,2.346.391,6.836-1,10l-5,4v14a6.1,6.1,0,0,1,2,2l3-1c1.35-6.783,3.053-14.344,11-15,1.667,3.1,2.1,6.486,2,12,2.281,1.225,2.251,1.638,6,2,1.667-3.1,2.1-6.486,2-12,3.1-1.667,6.486-2.1,12-2,1.021,0.8.274,0.355,2,1,0.756,5.683-.009,10.881,6,12,1.92-3.6,2.12-8.8,2-15-0.8-1.021-.355-0.274-1-2-4.519-1.346-9.1-4.85-10-10C665.619,255.957,671.43,244.9,673,234Zm2-20c4.509,0.653,5,2.815,8,4,5.838,2.305,13.4,2.65,19,4v2h-1c-6.565,4.328-17.524,5.308-26,7v-2C672.947,226.041,673.871,217.051,675,214Zm-75,15c-0.85,2.448-1.039,6.184-1,10,1.766,0.961,1.68,1.257,4,2,1.513-2.806,2.043-4.964,2-10C602.909,229.879,603.168,229.566,600,229Zm114,42c6.433,3.83,11.631,17.454,14,25-3.994,2.113-8.015,3.619-9,9,12.53,6.432,18.748,1.2,18,22-9.935,4.718-9.629,4.069-9,19,1.6,2.284,1.566,11.96,1,13v1h-2c-5.764-8.308-31.728-19.957-34-25V324c0.8-1.021.355-.274,1-2h2c4.68-2.841,13.682-.916,18-4,0.8-1.021.355-.274,1-2h-1v-1c-3.622-.418-13.789-1.834-17-4-2.066-3.151-1.13-12.069-1-17,1.869-2.837.4-6.248,0-10C702.238,280.243,709.178,276.247,714,271ZM251,326c-2.076-.372-1.924-0.242-3-1-9.294-9.923-11-30.14-11-49a18.324,18.324,0,0,1,6-1c9.017,7.328,38.411,4.879,43,16h1v1h-1c-1.549,1.049-4.085,1.031-7,1-5.443-3.681-14.935-5.8-23-6v2h1c3.881,3.852,11.347,6.125,16,9l-1,3c-5.984,1.968-6.515,6.217-14,7-2.271-3.121-7.247-9.518-11-11v9C250.222,310.651,251.012,318.491,251,326Zm187-47h9v1c-9.376,6.047-17.931,14.221-27,21l-4,5-11,2c-9.531,3.553-22.29,8.739-32,12-4.055,1.362-6.021.47-10,2-5.237,2.013-24.454,12.362-28,11-5.374-.931-11.429-7.28-13-12,19.678-8.681,42.06-17.429,62-26l9-1c10.886-3.539,24.369-7.743,35-12C431.751,280.5,435.389,281.344,438,279Zm300,0c17.188,0.294,34.052,8.3,48,13,19.145,6.451,36.722,9.938,54,18v2c-20.266,12.467-69.159-6.44-86-17C748.168,291.343,737.915,284.958,738,279Zm-274,8c-1.055,24.12-23.171,33.017-45,37v-2c5.723-1.336,7.112-5.305,11-8,4.6-3.186,8.415-4.8,13-8C450.223,300.958,454.206,289.129,464,287Zm441,6c2.076,0.372,1.924.242,3,1,1.142,1.69,1.066,4.9,1,8-2.465,4.078-.741,10.642-2,16-2.335,9.942-4.874,19.314-7,29h-3c-1.021-.8-0.274-0.355-2-1-3.908-8.116-.493-14.063,0-25h-2v1c-3.523,3.766-8.358,16.121-14,14-3.621-1.009-5.782-2.47-7-6,3.919-3.613,7.446-8.041,9-14h-2c-3.6,4.82-10.9,9.8-19,10-1.806-2.569-2.425-1.639-3-6,7.359-2.367,13.866-9.2,20-13C885.865,301.5,896.963,299.5,905,293Zm-623,5a13.368,13.368,0,0,1,10,12l-18,15c-3.143,4.285-2.664,7.672-9,9-3.1-4.529-5.838-4.923-6-13,2.622-2.091,3.68-5.619,6-8C270.254,307.608,276.761,303.389,282,298Zm12,17h3c3.658,4.485,9.173,4.437,10,12-8.052,3.812-20.875,16.676-27,18-1.9-3.236-2.9-4.357-3-10,1.769-1.957,1.431-4.607,3-7C283.362,322.874,290.417,320.052,294,315Zm326,10v-3h-4v2h1C618.073,324.752,617.946,324.6,620,325Zm138-3c2.076,0.372,1.924.242,3,1,17.72,18.975,35.346,81.873,21,117h-2V400c-3.322-5.15-4.514-18.473-5-25h-3c0.711,28.689-7.481,50.935-16,70-3.869,8.658-7.733,17.954-17,21v-3c3.228-3.6,8.643-20.827,9-27h-2v1c-5.228,5.587-9.267,16.283-18,18-1.577-2.836-2.6-4.8-6-6v1h-1a44.275,44.275,0,0,1,1,9h-3c-4.766-7.068-16.107-11.807-18-21C740.682,414.893,758.011,385.336,758,322Zm88,4c10.874,3.358,27.711,20.234,37,27,5.112,3.724,12.692,6.7,15,13-5.685,3.888-9.085,12.966-17,14v-1h-1c-0.561-3.558-2.489-5.444-3-8-0.828-4.143,1.567-4.836,2-9-3.927-2.189-27.752-14.961-29-14-3.361,1.317-2.9,1.541-3,6,3.237,1.673,8.049,2.581,12,4,3.635,7.8,7.449,14.685,8,26-6.536,3.907-14.576,4.971-23,8,0.631,1.754.193,0.971,1,2,5.482,4.849,14.534,7.4,21,11-0.631,1.754-.193.971-1,2-1.225,4.693-3.164,8.515-9,9-10.375-10.39-25.239-18.183-38-26-5.579-3.417-11.075-2.737-12-11,3.687-2.373,5.046-4.493,11-5,5.946,4.195,15.981,7.768,24,9q0.5-1.5,1-3c-1.711-2.5-8.762-34.74-9-39C837.674,337.331,841.9,330.38,846,326Zm-40,24h-3a21.627,21.627,0,0,1-3,7h-1v-1c-2.818-2.461-9.556-18.057-10-23,10.041-1.162,16.349-5.65,28-6,1.079,3.127,1.065,8.414,1,13-3.444,5.553-2.569,13.408-10,15C806.879,352.909,806.566,353.168,806,350ZM310,329c6.5,4.094,21.5,17.793,23,26-5.564,3.36-12.584,7.335-17,12l-5,8h-5c-2.3-4.332-5.294-4.987-6-11,2.267-1.464,20.308-19.141,21-21h-1v-1c-5.959,2.91-24.558,18.383-26,18-4.285-1.338-5.7-3.615-6-9,5.508-4.2,8.318-12.022,14-16C305.553,332.513,307.6,332.587,310,329ZM449,435c-2.076.372-1.924,0.242-3,1,2.081,2.778,10.349,26.869,11,31h-2c-4.509-6.939-11.663-12.643-16-20-9.32-15.81-14.749-49.278-15-74h-3c-0.636,4.695-2.891,6.8-4,10-2.966,8.558-2.708,20.063-5,28-3,10.395,2.792,19.279,3,29-2.076-.372-1.924-0.242-3-1h-1c-0.888-6.305-2.7-12.129-4-18-5.7-25.691,7.476-53.14,14-68,3.347-7.624,6.256-21.124,14-24v1c3.209,3.843.624,9.757,2,16,2.824,12.811,3.845,27.423,9,39,4.8,10.784,17.192,30.264,26,37,5.261,4.024,24.5,13.306,26,19-9.129,5.916-14.509,21.631-26,24-3.006-5.706-9.335-8.088-13-13-3.481-4.667-5.412-10.5-10-14v-3Zm40-98v3c-12.029,2.926-24.149,12.521-30,22h-1v-1c-1.644-2.477-1.123-8.9-1-13,1.262-1.359,1.365-1.768,2-4C470.4,337.087,473,334.847,489,337Zm-89,29c-2.076-.372-1.924-0.242-3-1-3.572-3.8-2.567-7.6-10-8-6.615,5.617-21.556,6.57-24,16,8.842-.605,20.53-3.757,29,0-0.631,1.754-.193.971-1,2-5.862,5.845-18.282,7.219-22,15-4.16,5.206-.68,15.185,0,22-2.418,1.3-2.833,1.8-7,2-3.486,2.238-14.311,1.965-19,2-2.318,3.35-6.656,4.8-9,8-5.6,7.641-9.236,16.707-15,24-1.754-.631-0.971-0.193-2-1-1.049-1.549-1.031-4.085-1-7,14.431-15.341,2.188-33.79,36-33v-1c0.752-1.073.6-.946,1-3-5.039-2.721-5.7-7.695-12-9-10.591,10.284-35.046,29.009-36,47,5.377,4.923,26.341,27.926,23,36-1.418.961-3.273,0.976-6,1-3.193-2.118-8-1.4-12-3-11.124-4.442-23.711-8.624-32-16,4.312-12.61,6.4-24.278,11-36,3.672-1.4,9.6-1.919,13-4,6.019-3.684,8.637-9.57,13-15l4-2c1.224-1.525.8-3.444,2-5,3.256-4.235,9.674-6.832,13-11,4.668-5.85,10.072-12.523,16-17,5.112-3.861,23.8-15.225,25-21-0.707-1.545-.129-0.135,0-3h11c3.361,2.179,12.146,2.024,17,2a18.324,18.324,0,0,1,1,6C401.768,355.862,400.535,361.756,400,366Zm206-17c23.517,0.2,47.363,9.361,65,17,5.409,2.343,15.3,1.948,17,8-8.521,2.24-14.541,6.292-24,8-8.517,1.538-28.384-9.582-36-12C616.409,366.321,595.842,368.04,606,349Zm-26,1h13c1.667,3.1,2.1,6.486,2,12-8.687,4.76-18.1,4.793-28,9-8.668,3.684-20.332,10.183-30,12-8.387,1.576-20.382-5.6-25-9v-1h1c3.653-4.223,34.747-14.762,42-17C563.376,353.415,574.294,355.13,580,350Zm246,1h3v2c2.15,2.382,6.2,19.812,6,20q-0.5,1-1,2a124.031,124.031,0,0,1-17-9q0.5-1.5,1-3C821.845,360.309,823.934,355.426,826,351ZM262,437c-2.635-24.493-6.779-49.6-7-76,5.065-2.529,8.283-5.948,15-7,1.3,2.418,1.8,2.833,2,7,2.709,4.029.838,10.2,2,16,4.107,20.477,1.668,38.458-7,53C264.692,433.872,267.1,435.573,262,437Zm74-77c2.076,0.372,1.924.242,3,1,0.752,1.073.6,0.946,1,3-3.829,2.594-21.208,19.592-23,18-0.8-1.021-.355-0.274-1-2,2.37-2.508,2.853-6.177,5-9C324.591,366.278,331.683,364.092,336,360ZM850,536c0.649-9.706,5.408-17.739,8-25q1-6,2-12c3.638-11.1,8.127-25.129,11-37,4.066-16.8-11.306-26.92-10-34,9.3,3.682,16.264,8,19,18,3.792,13.851-4.531,26.762-1,38h1v-1c4.33-3.01,8.551-9.167,11-14l3,1a36.086,36.086,0,0,1,1,7h3c6.011-10.144,16.9-15.9,25-24,12.121-12.12,32.154-49.153,34-71h-2c-0.968-.251-0.379-0.784-1,0-7.013,2.481-12.591,8.769-20,11-10.7,3.223-30.931-5.195-33-11a25.086,25.086,0,0,1,8-1c11.747,7.706,21.394-8.5,29-10,16.859,15.684,46.233-8.212,62-10v2c2.49,4.625-8.139,40.684-10,47-2.084,7.074.757,12.5-7,14-4.151-3.158-14.61-6.152-20-7v2h-1c-0.99,1.01.985,0.988,1,1,4.745,5.65,17.3,7.87,19,16-4.062,5.41-4.508,11.761-8,18-3.962,7.078-19.792,28.392-28,30a40.346,40.346,0,0,0-14-13v5c3.592,4.593,4.057,14.085,4,22-9.039,5.728-18.129,14.577-28,19-2.936,1.316-10.4,3.457-11,3-4.165-1.672-4.449-5.952-6-10l-3,1c1.523,4.243,2.726,7.691,3,13C880.707,529.618,864.652,535.589,850,536ZM593,370c17.968-.606,32.487,7.041,46,12,5.268,1.934,14.844,2.3,17,7v12c1.438,2.15,1.113,7.308,1,11h-2c-16.354.475-39.662-23.395-59-24-5.936,5.451-14.806,6.685-22,11-4.333,2.6-10.568,6.931-15,9-4.414,2.061-7.651.832-12,3-2.706,1.349-2.484,3.193-7,4a15.7,15.7,0,0,1-1-5c2.768-4.193,2.12-13.341,2-20,9.344-5.085,22.009-9.521,32-14C580.057,372.837,587.654,374.4,593,370Zm-93,6c5.22,1.6,9.9,5.528,15,8-0.631,1.754-.193.971-1,2-4.391,5.112-21.28,25.7-27,27-5.346-5.543-16.282-11.452-18-20C474.128,389.955,497.5,379.152,500,376Zm196,0c7.5,0.422,30.873,12.88,32,19-2.481,2.337-3.7,5.461-6,8l-9,7h-4c-7.117-7.457-20.813-15.351-23-27C689.369,381.172,693.815,379.127,696,376ZM521,387l13,1c1.372,2.542,1.917,3.5,2,8-3.38,3.938-2.942,16.316-4,22-7.467,3.485-13.3,9.39-23,10-5.093-4.585-12.529-4.556-13-14C505.086,406.994,513.131,395.426,521,387Zm145,0h11c6.5,8.428,25.868,21.39,28,32-4.028,2.719-10.53,8.635-15,10-4.885,1.491-24.986-9.724-26-12V403c-1.749-2.643-1.126-9.695-1-14A10.925,10.925,0,0,0,666,387Zm-69,12c9.572,0.576,24.2,6.828,24,18,3,4.69.2,11.715,2,18,3.212,11.206,2.507,26.384,3,41,0.151,4.466,2.472,11.051,0,15-4.222,12.4-18.709,18.325-27,27-1.754-.631-0.971-0.193-2-1-7.067-2.306-26.289-16.748-29-23V481c4.4-5.316.2-16.759,2-25,3.74-17.129,3.53-35.378,9-50C584.171,403.867,592.79,402.48,597,399Zm218,3c13.407-.266,27.172,10.036,29,21a18.324,18.324,0,0,1-6,1c-5.22-7.922-15.249-14.648-24-19Q814.5,403.5,815,402Zm-431,1c3.816,1.256,3.914,2.028,4,7,2.412,3.68,2.475,13.06,3,18h-1v1c-1.754-.631-0.971-0.193-2-1-3.261-1.037-3.918-1.784-5-5-2.881-3.653-3.092-10.477-3-17A18.068,18.068,0,0,0,384,403Zm424,9c2.532,0.074,3.716.12,5,1,9.8,3.03,10.933,10.56,17,17-0.631,1.754-.193.971-1,2-1.85,2.4-2.84,2.724-7,3-5.073-5.174-17-10.469-18-19A12.205,12.205,0,0,0,808,412ZM637,466h-3q-0.5-15.5-1-31h1v-1c2.532-.074,3.716-0.12,5-1,0.8-1.021.355-.274,1-2-7.844-3.1-11.514-3.026-11-15h1v-1c14.851,3.562,29.523,13.325,41,21v2c-3.566,1.038-6.958,3.265-10,5,2.449,13.263,6.21,24.3,7,39a15.7,15.7,0,0,1-5,1c-3.438-4.413-9.43-5.667-14-9-4.447-3.243-5.987-10.441-11-13v1C637.2,463.18,637.227,463.681,637,466Zm-76-49h5a14.124,14.124,0,0,1,1,4c-1.676,2.3-1.662,6.372-4,8-3.86,2.689-30.469,9.9-37,10q-0.5-1.5-1-3c8.457-2.549,14.7-10.8,23-14C553.544,419.862,557.326,420.575,561,417Zm32,1c-2.367,6.182-10.842,7.933-13,14v9c-3.279,14.829-2.01,35.242-2,53l15,11c1.754-.631.971-0.193,2-1,2.428-3.8,1-14.314,1-20V438c0-5.478,1.316-15.363-1-19C593.979,418.2,594.726,418.645,593,418Zm-229,3c8.343,0.275,33.248,22.706,34,30-1.74,2.848-1.142,8.4-3,11-1.18.8-1.681,0.773-4,1-8.4-14.069-25.552-23.718-35-38l2-1C359.579,422.782,362.443,422.251,364,421Zm438,8c5.374,1.286,11.451,5.663,12,12-3.7,2.421-5.879,6.043-9,9q0.5,1.5,1,3l9-7c1.754,0.631.971,0.193,2,1h1c-0.383,2.054-.949,4.608-2,6-1.276,4.148-6.525,11.9-11,13-3.6-7.583-8.765-11.037-9-22C798.914,440.607,799.892,432.856,802,429Zm-460,2c7.129,1.973,9.369,7.679,14,12,7.929,7.4,27.729,20.568,30,32-2.364,2.375-1.935,3.97-6,5-4.422-5.634-18.369-19.738-24-24-6.207-4.7-16.313-10.108-17-20A18.711,18.711,0,0,0,342,431Zm161,9c7.79,0.491,20.19,3.874,27,7-0.631,1.754-.193.971-1,2-0.515,1.7-15.738,28.874-16,29h-4a15.657,15.657,0,0,0-12-10c-3.808,5.962-24.447,33.059-30,35v-4c6.26-5.626,7.467-16.58,12-24C486.362,462.948,493.542,450,503,440Zm190,0h3c3.4,5.9,8.768,12.188,12,18,4.705,8.461,6.127,16.882,11,25,3.3,5.5,7.741,11.628,9,19h-1v1h-1v-1c-9.743-6.694-18.325-31.632-30-33-2.77,3.033-12.377,10.7-16,9-2.542-1.455-1.128.217-2-3-3.738-5.723-3.928-19.764-4-28l3-1C681.443,443.015,689.149,443.542,693,440Zm-151,6c-0.56,3.785-12.124,24.229-15,25-0.088-5.017,5.364-23.767,8-25h7ZM314,467v-3c-6.7-4.466-11.537-12.428-21-14a14.124,14.124,0,0,0-1,4c0.8,1.021.355,0.274,1,2C300.192,459.65,304.359,465.481,314,467Zm101,27a116.129,116.129,0,0,1-2,25c-8.054,3.826-23.953,11.971-30,18-1.754-.631-0.971-0.193-2-1-0.752-1.073-.6-0.946-1-3,5.557-6.3,6.342-14.522,10-23,2.8-6.5,8.128-14.418,11-21,2.957-6.777,3.178-17.244,11-19,7.051,11.242,17.4,19.3,27,28-2.164,6.872-8.347,9.605-12,15h-2l-1-2C420.516,505.68,422.039,495.876,415,494Zm367,0h-3v2c-2.9,4.69-2.9,13.3-5,18h-2c-4.382-6.054-12.343-8.113-14-17,6.587-3.176,14.738-8.468,19-14,3.107-4.033,3.251-7.471,9-9,10.774,17.773,22.2,39.258,28,61h-4c-11.471-13.467-26.607-3.215-26-32C782.7,501.08,782.284,496.75,782,494ZM272,477c3.77,1.68,18.708,8.294,21,11,3.562,5.4,3.9,15.949,6,23,3.506,11.775,8.833,25.073,13,36,1.558,4.084.36,6.956,2,11,0.9,2.233,4,4.68,5,7,4.2,9.759,5.273,18.033,10,27,3.137,5.951,8.622,12.185,10,20a14.124,14.124,0,0,1-4,1c-4.672-3.178-13.109-4.732-20-5-16.308-27.981-26.245-61.777-36-96C276.387,502.832,269.1,486.7,272,477Zm303,32c-13,1.04-50.066-11.645-56-20h1v-1C534.617,492.3,571.589,496.345,575,509Zm89-18h20c7.225,2.076,26.189,17.086,27,25h-1v1l-31,3c-5.267,1.37-8.664,3.7-16,4q-0.5-1.5-1-3c2.081-2.7,3.182-8.324,4-12h-3c-6.385,19.925-23.064,21.048-40,30-8.109,4.286-15.1,12.586-27,13-3.983-3.865-8.344-4.512-14-7-7.188-3.162-15.9-8.754-23-12-3.885-1.775-6.912-.64-11-2-9.189-3.057-22.24-6.8-32-10-6.944-2.275-18.208.738-24-3-0.8-1.18-.773-1.681-1-4,4.128-2.192,11.122-2.124,18-2,2.7,1.749,29.069,5.448,30,5a6.1,6.1,0,0,0,2-2,63.986,63.986,0,0,1-10-8v-2h3c2.069,1.664,4.155,1.91,8,2,10.157,18.394,22.225,18.113,40,28,2.469,1.373,14.106,9.343,15,8l2-1c-1.158-3.366-1.068-9.15-1-14,10.984-6.808,19.757-16.274,30-24l6-7C641.035,492.628,657.214,495.313,664,491Zm79,21h4c4.958,6.231,15.12,8.882,18,17h-1c-2.953,4.568-9.1,10.433-16,11-5-5.282-14.212-11.023-17-18C735.67,519.412,740.139,516.417,743,512Zm-296,1h5c3.661,4.839,12.038,4.7,13,12-6.374,4.333-9.866,13.925-19,15-3.843-5.606-12.052-7.911-13-16C437.959,521.606,444.058,517.509,447,513Zm253,36h3c2.431,3.493,6.444,6.753,8,11,6.829,18.643-5.893,48.2-17,52v-2c5.267-7.413,10.759-24.068,11-36h-3c-0.2,2.328-.193,2.826-1,4-1.588,5.812-5.381,12.748-13,13-5.4-4.743-24.335-4.63-30-1-12.552,8.043-24.929,16.238-37,25-7.356,5.34-13.5,15.06-24,17-4.413-6.589-12.555-10.368-19-15-11.017-7.918-30.638-26.3-44-30-9.851-2.726-19.53,3.794-29,4-7.572-12.116-7.62-16.02-11-33h-2v1c-1.854,2.811-1.128,10.487-1,15,1.679,2.662.735,6.594,2,10,3.265,8.788,9.979,17.037,11,28h-2c-5.247-8.132-26.552-35.282-16-51,1.4-5.062,4.839-9.485,11-10,3.759,6.6,7.61,19.071,17,20v-2c-9.092-7.1-11.858-22.445-9-36,3.024-.736,3.527-1.464,7-2v1h1c-4.66,22.164,9.753,28.859,20,39,12.684-.748,20.637-5.726,35-6,1.064-2.29,1.715-9.531,4-11,8.477-.87,17.194,11.5,30,12,4.528-3.77,19.73-11.935,26-13v1h1a27.42,27.42,0,0,0,1,9c9.8,4.324,23.268,7.372,36,8,2.934-3.6,7.276-4.139,11-7,7.491-5.754,10.586-20.2,8-33a14.124,14.124,0,0,1,4-1c12.5,18.02,1.637,25.544-4,41h3C693.217,564.334,699.427,560.77,700,549Zm74-18c4.512,1.965,29.433,13.96,31,17,0.752,1.073.6,0.946,1,3-4.956,5.329-9.662,14.539-13,21h-3v-2c1.735-2.036,2.991-6.206,2-8-1.837-3.373-21.659-10.22-27-11-3.22,3.5-13.336,13.833-16,14-1.021-.8-0.274-0.355-2-1v-3c4.535-3.223,6.576-8.622,10-13C761.743,541.935,768.753,536.724,774,531Zm-353,1h6c4.841,7.969,12.711,13.647,18,21,1.566,2.177,4.922,7.936,4,9-1.073.752-.946,0.6-3,1-2.647-5.617-9.873-8.662-14-13-10.274,2.075-20.338,7.046-28,12,1.1,3.845,4.137,7.16,3,10v1c-1.754-.631-0.971-0.193-2-1-5.311-5.163-13.455-15.864-15-24C399.8,544.261,413.972,539.037,421,532Zm492,0c0.041,16.255-13.906,39.726-19,53-2.507,6.533-4.1,18.055-10,21-5.239,3.684-16.335,5.809-24,6q-0.5-1.5-1-3c12.824-13.046,22.391-49.448,30-69C896.936,537.168,904.742,532.865,913,532Zm-386,2c11.692,2.752,26.379,11.3,30,22h-1c-3.128,2.819-10.971,2.177-17,2C534.02,551.361,521.347,545.093,527,534Zm143,0c2.848,1.972,3.014,3.013,3,8-9.809,10.1-6.177,16.407-28,16-1.021-.8-0.274-0.355-2-1a6.1,6.1,0,0,0-2-2q0.5-1.5,1-3c4.607-2.935,8.532-8.018,13-11C659.6,537.927,666.116,537.7,670,534Zm130,48c1.34-8.1,12.925-24.41,18-30,6.215,1.272,10.308,5.08,15,7,8.726,3.571,18.972,3.671,26,9,0.752,1.073.6,0.946,1,3-8.8,5.909-15.932,15.1-25,21-3.246,2.11-6.079,1.207-10,3-3.163,1.446-7.225,5.673-11,4-0.8-1.021-.355-0.274-1-2,5.626-3.351,25.758-16.923,27-23a14.124,14.124,0,0,0-4-1c-4.489,2.73-13.078-.659-19,1C810.817,575.732,807.384,580.806,800,582ZM378,553h3c4.865,8.25,14.249,16.446,16,27h-1v1c-14.136-6.48-15.9-8.026-38-8v1h-1v2c5.151,2.934,24.176,17.049,26,22h-1v1c-12.652-2.639-41.816-20.484-44-32h1v-1C347.431,565.237,372.578,557.454,378,553Zm60,12h5v2h-2c-2.253,2.209-5.052,3.444-9,4v-2A29.369,29.369,0,0,0,438,565Zm320,1a21.627,21.627,0,0,1,7,3v2h-3C759.071,568.265,758.118,569.363,758,566Zm-135,9c-2.753,4.041-6.85,5.293-8,11h2c3.057-3.334,6.954-5.65,8-11h-2Zm-49,1v5c2.035,1.246,8.059,6.339,9,5h1c0.99-1.01-.985-0.988-1-1-1.269-4.142-3.886-5.838-6-9h-3ZM405,594c2.532,0.074,3.716.12,5,1,8.4,2.863,35.092,25.916,40,33,3.1,4.48,4.409,10.031,8,14l-1,3c-10.094-4.88-19.209-13.791-30-17v2c1.774,2.208,2.569,5.474,3,9-2.67,1.441-4.221,1.994-9,2-4.873-2.949-19.469-2.718-25-5-1-3.08-1.837-7.424-3-10h-2c-2.285,4.352-3.613,8.42-10,9-2.784-1.736-8.329-1.179-11-3-0.752-1.073-.6-0.946-1-3,8.637-5.81,13.863-16.724,22-23C395.956,602.177,401.521,599.255,405,594Zm121,0c9.4,0.772,13.909,7.889,20,12,15.522,10.478,38.808,23.781,51,37,13.013-3.05,23.285-15.86,33-23,7.516-5.524,15.337-9.618,23-15,6.23-4.376,9.853-10.294,20-11,5.087,2.97,11.28.574,14,6h1c0.99,1.01-.985.988-1,1-4.526,6.134-15.663,8.741-23,12-15.508,6.888-31.221,17.894-45,27-4.594,3.036-17.793,12.5-22,11-5.345-1.72-8.861-6.22-13-9-10.394-6.98-21.526-13.759-32-20-13.827-8.239-30.689-11.448-42-22l1-3C514.507,596.405,523.053,595.976,526,594Zm211,51c2.767-15.451,24.722-31.674,36-40,5.324-3.93,8.231-10.446,17-11,9.123,11.581,34.02,22.755,39,38h-1c-2.984,2.69-9.388,3.057-15,3-1.751-4.145-2.247-6.507-8-7-1.1,3.237-1.569,6.069-4,8-6.673,4.811-23.741,4.619-34,5a15.7,15.7,0,0,1-1-5c2.176-2.111,3.179-4.444,4-8h-1v-1h-2C762.93,632.257,744.687,643.736,737,645ZM255,616c23.981,3.144,46.435,15.832,72,17,3.883,7.578,2,24.076,2,35v80c3.035,4.709,1.133,19.161,1,26-2.418,1.3-2.833,1.8-7,2-7.134,4.821-18.021,4.306-27,7-12.859,3.858-26.523,10.5-41,12v-2c3.613-2.394,31.009-30.99,32-34q-0.5-56-1-112C280.5,643.458,256.511,621.743,255,616Zm686,0v3c-9.98,6.765-22.8,31.228-32,35-3.5,2.122-8.392.637-13,2-15.612,4.618-38.884,5.858-54,12-2.257,6.681-1.08,18.581-1,27,2.091,1.121,1.832,1.434,5,2l53-10a14.124,14.124,0,0,1,1,4c-6.6,6.513-8.721,18.244-16,24-5.354,3.943-33.6,2.821-42,6-1.488,4.357-1.075,12.072-1,18,2.281,1.225,2.251,1.638,6,2,3.5,2.131,10.075-.067,15,1,14.762,3.2,34.45,2.021,49,5,1.739,7.538,18.285,39.2,23,44q-0.5,1.5-1,3c-37.607-14.072-83.155-16.185-126-25-3.987-7.783-2-24.838-2-36V650h1v-1c18.771-1.821,37.573-8.271,54-13,15-4.317,28.238-6.118,42-10l9-1C919.365,621.884,931.5,617.591,941,616ZM345,650c14.33,0.09,26.682,5.549,42,6,7.086,11.327,16.631,22,24,33,3.754,5.605,6.734,14.072,13,17v-1c3.327-5.25,1.112-35.2,1-44,3.366-1.158,9.15-1.068,14-1,1.992,1.337,6.507,1.1,10,1,3.368,6.563,2,20.259,2,30v68c-3.77,2.009-9.575,2.122-16,2-2.906,2.006-8.911.71-12,0-1.257-4.712-3.861-4.85-6-8-7.376-10.864-13.64-21.774-21-32-3.086-4.288-3.991-9.663-9-12v1c-3.878,6.151-1.11,43.659-1,54-7.526,4.276-19.21,5.731-30,7-3.677-7.17-2-22.55-2-33V664C350.4,660.625,346.469,655.315,345,650Zm433,4h5c4.4,8.459,2.121,28.008,2,40,2.411,3.845,1,14.283,1,20v50c-4.357,1.488-12.072,1.075-18,1-3.729-2.394-14.9-2.013-20-2-6.9-10.991-16.612-20.542-24-31-4.331-6.13-8.046-15.741-15-19v1c-3.437,5.431-1.111,36.891-1,46-2.893,1-7.674,1.059-12,1-2.761-2.508-8.529-2.173-14-2-2.672-5.067-2.124-14.98-2-23-5.582-9.17,2.46-35.084-1-47-0.448-1.542-2.022-12.406-3-14-2.44-3.977-6.354-4.414-8-10,4.611-1.573,12.8-1.076,19-1,3.491-2.218,23.251-2.067,29-2,11.618,18.377,26.82,35.154,37,55,1.754-.631.971-0.193,2-1,1.238-1.838,1.089-5.7,1-9-3.492-5.521-1.111-37.737-1-47C760.556,657.007,773.06,657.291,778,654ZM460,759c0.911-5.593,8.478-18,13-20h30c4.012-2.6,16.013-1.132,22-1v-3c-5.985-1.446-9.921-5.733-15-8-11.6-5.18-22.876-9.818-33-16-3.184-1.944-10.427-2.712-12-6V677c8.558-5.828,9.991-14.076,25-14,3.953,2.386,14.2.965,20,1,5.963,0.036,45.817,1.983,49,4,0.752,1.073.6,0.946,1,3-3.418,4.44-5.928,15.671-11,18H504v1h-1v2c13.059,3.592,25.145,12.883,37,18,5.133,2.215,16.81,4.258,19,9v25h-1c-5.519,18.051-30.152,13.523-53,13C500.48,759.843,467.346,759.062,460,759Zm126-92c17.715-.718,38.723-0.979,58-1,9.394,18.149,11.32,40.613,18,61,3.013,9.2,9.391,21.38,9,31H648c-1.69-1.142-4.9-1.066-8-1-0.724-1.262-6.736-14.867-7-15H602c-2.048,3.972-3.54,12.2-8,14-5.059,3.251-20.733,1.133-28,1-0.631-1.754-.193-0.971-1-2,4.163-11.838,9.113-24.094,13-35,2.047-5.745.557-10.571,3-16,2.789-6.2,7.319-15.5,9-23C591.377,674.856,586.521,673.013,586,667Zm29,31c-1.241,10.684-6.893,17.841-8,28,4.357,1.488,12.072,1.075,18,1l2-3c-4.172-5.924-7.3-17.659-8-26h-4ZM877,800v3c-25.866-.339-48.5,7.4-68,14-5.878,1.99-10.679,1.631-16,4-7.758,3.454-16.884,11-25,13-3.932.97-43.19-5.575-48-7H704c-22.737-5.02-53.85.549-76-6H568c-10,0-21.975-.08-29,2-10.373,3.071-29.356-.393-40,2H484c-7.111,1.55-18,2.214-24,4H449c-7.4,1.648-18.385,2.317-26,4-12.785,2.826-27.442-10.561-36-14-20.8-8.357-50.475-15.168-77-16v-3c21.913-1.218,43.986-9.014,64-14l41-4c13.261-4,32.391-2.738,47-6h18c22.467-4.9,52.968-4,79-4h74c9.085,2.013,23.939-1.974,34,1,14.272,4.219,35.832,1.63,51,5l39,2c10.8,3.216,27.5,3.341,39,6l16,1c7.06,2.2,17.319,2.535,26,5C849.36,795.226,863.136,799.516,877,800Zm-516-2-1,3h2c4.815,3.114,11.949,2.037,18,4,8.131,2.638,15.882,6.669,26,8v-2C391.393,807.083,381.176,798.371,361,798Zm452,0c-3.053,1.8-8.3.658-12,2-7.443,2.7-26.538,9.7-31,15h-1v1h5c5.284-4.952,25.125-9.649,33-12,6.191-1.848,12.275.192,15-5A28.9,28.9,0,0,0,813,798ZM407,813c1.275,1.394,4.124,4.288,5,3,0.8-1.021.355-.274,1-2Zm120,28c19.533,9.542,38.176,16.008,56,27,4.134,2.55,12.577,12.183,19,11,6.641-1.223,13.759-9.665,19-13,6.16-3.919,12.835-5.016,19-9,9.309-6.015,19.981-13.928,33-16v2c-9.611,6.285-16.876,16.35-26,23-7.627,5.559-15.206,9.555-23,15-7.648,5.344-14.278,15.119-26,16-4.121-4.883-11.7-7.269-17-11a466.532,466.532,0,0,1-39-31C537.757,851.268,525.911,846.4,527,841Zm-67,2c7.439-.164,23.813-2.351,29,1,11.487,3.964,24.155,20.814,34,28,17.056,12.45,33.82,23.607,52,35,8.394,5.261,14,14.394,27,15,4.04-3.79,9.074-4.917,14-8,11.044-6.913,22.817-14.415,34-22,17.323-11.749,33.441-26.932,50-40l5-7c5.164-3.477,24.282-3.233,31-1v2c-13.984,8.783-23.159,24.1-36,34-21.81,16.817-41.287,34.719-64,51-10.317,7.4-25.467,25.666-39,28-8.651-10.864-30.98-23.351-43-32-16.979-12.218-32.179-27.333-49-40-5.022-3.782-8.9-10.412-14-14C484.5,868.427,459.278,848.993,460,843Z"/>
</svg>
